<svg xmlns="http://www.w3.org/2000/svg" width="256" height="256" viewBox="0 0 100 100"><path fill="#073914" d="M47.16 64.27L47.16 64.27Q47.16 67.50 49.05 68.86Q50.94 70.20 54.36 70.20L54.36 70.20Q55.89 70.20 57.60 69.75Q59.31 69.30 60.58 68.67L60.58 68.67Q61.20 69.39 61.70 70.30Q62.19 71.19 62.19 72.45L62.19 72.45Q62.19 74.80 59.81 76.33Q57.42 77.86 52.56 77.86L52.56 77.86Q45.81 77.86 41.81 74.84Q37.80 71.83 37.80 64.89L37.80 64.89L37.80 22.87Q38.44 22.69 39.60 22.41Q40.77 22.15 42.13 22.15L42.13 22.15Q44.73 22.15 45.95 23.13Q47.16 24.13 47.16 26.47L47.16 26.47L47.16 35.38L61.11 35.38Q61.47 35.91 61.79 36.91Q62.10 37.90 62.10 38.98L62.10 38.98Q62.10 42.84 58.77 42.84L58.77 42.84L47.16 42.84L47.16 64.27Z"></path></svg>